<?xml version="1.0" standalone="no"?>
<!DOCTYPE svg PUBLIC "-//W3C//DTD SVG 20010904//EN"
 "http://www.w3.org/TR/2001/REC-SVG-20010904/DTD/svg10.dtd">
<svg version="1.0" xmlns="http://www.w3.org/2000/svg"
 width="132.000000pt" height="132.000000pt" viewBox="0 0 132.000000 132.000000"
 preserveAspectRatio="xMidYMid meet">
<metadata>
Created by potrace 1.11, written by Peter Selinger 2001-2013
</metadata>
<g transform="translate(0.000000,132.000000) scale(0.100000,-0.100000)"
fill="#000000" stroke="none">
<path d="M904 1245 c-7 -18 3 -35 21 -35 15 0 28 27 19 41 -8 14 -34 11 -40
-6z"/>
<path d="M1124 1179 c-2 -4 -1 -15 2 -24 9 -22 38 -14 42 12 3 17 -2 21 -18
20 -12 -1 -23 -4 -26 -8z"/>
<path d="M826 1145 c-93 -32 -149 -126 -145 -246 2 -60 -13 -99 -57 -143 -112
-111 -344 -106 -423 10 -31 44 -38 123 -18 181 8 23 12 45 9 48 -22 22 -95
-16 -105 -55 -6 -24 5 -26 24 -4 14 17 69 48 69 39 0 -3 -10 -19 -22 -36 -28
-37 -30 -127 -5 -176 55 -106 220 -151 371 -102 76 25 126 64 153 118 l19 39
19 -28 c47 -70 140 -84 194 -29 47 47 44 99 -13 182 -24 35 -51 77 -60 93
l-17 29 7 -35 c3 -19 22 -61 42 -92 61 -101 39 -186 -46 -175 -64 9 -112 75
-112 154 1 90 68 186 139 199 20 4 43 8 53 10 9 1 37 -8 62 -22 25 -13 58 -24
74 -24 15 0 40 -6 55 -12 38 -18 37 -66 -1 -109 -24 -27 -36 -32 -76 -33 -41
0 -45 -2 -30 -13 42 -31 114 -9 151 46 25 37 28 67 13 123 -12 42 -27 48 -88
35 -35 -7 -48 -5 -76 13 -42 25 -110 32 -160 15z"/>
<path d="M590 1091 c-7 -15 -6 -23 5 -35 28 -27 69 10 44 40 -16 20 -37 17
-49 -5z"/>
<path d="M962 1048 c-6 -6 -8 -17 -5 -24 4 -11 8 -11 20 1 8 9 19 13 24 10 5
-4 9 -4 9 -1 0 13 -37 25 -48 14z"/>
<path d="M318 972 c-10 -2 -18 -10 -18 -18 0 -8 0 -17 -1 -21 0 -5 8 -14 19
-21 16 -10 22 -9 38 10 10 12 13 18 5 13 -10 -6 -12 -3 -7 13 7 21 -7 31 -36
24z"/>
<path d="M40 919 c-12 -43 -1 -97 23 -117 9 -8 12 10 12 74 0 94 -16 114 -35
43z"/>
<path d="M1250 880 c-8 -15 -7 -21 7 -28 25 -13 43 -4 43 21 0 18 -2 19 -10 7
-8 -13 -10 -12 -10 3 0 23 -17 22 -30 -3z"/>
<path d="M957 865 c-6 -15 -1 -54 8 -63 10 -11 40 15 41 34 1 38 -37 61 -49
29z"/>
<path d="M1037 873 c-13 -12 -7 -54 9 -60 23 -8 36 10 28 41 -6 25 -23 34 -37
19z"/>
<path d="M0 835 c0 -25 26 -79 46 -97 11 -9 31 -19 46 -23 26 -7 25 -6 -12 34
-21 22 -41 54 -45 70 -7 31 -35 44 -35 16z"/>
<path d="M535 827 c-27 -20 -13 -67 20 -67 35 0 52 35 29 61 -20 23 -25 23
-49 6z m25 -7 c-8 -5 -19 -10 -25 -10 -5 0 -3 5 5 10 8 5 20 10 25 10 6 0 3
-5 -5 -10z"/>
<path d="M1015 791 c-3 -6 -1 -27 3 -48 5 -22 7 -65 5 -97 -5 -66 9 -68 25 -4
10 40 8 116 -3 146 -5 14 -21 16 -30 3z"/>
<path d="M1105 739 c-4 -13 -2 -27 7 -35 12 -12 17 -12 33 0 16 12 18 18 9 33
-16 26 -41 28 -49 2z"/>
<path d="M1229 657 c8 -9 11 -21 7 -24 -4 -4 -11 -1 -16 7 -6 9 -10 10 -10 3
0 -6 5 -15 10 -18 17 -11 11 -42 -15 -81 -14 -20 -25 -51 -25 -68 l1 -31 17
30 16 30 6 -35 c5 -35 6 -35 19 -12 7 13 14 44 16 69 2 25 10 53 18 62 8 9 17
25 21 36 5 16 2 15 -14 -5 -11 -14 -20 -28 -20 -32 0 -5 -4 -8 -10 -8 -5 0 -8
15 -5 34 3 24 -1 38 -13 48 -15 12 -16 11 -3 -5z m11 -117 c0 -5 -4 -10 -10
-10 -5 0 -10 5 -10 10 0 6 5 10 10 10 6 0 10 -4 10 -10z"/>
<path d="M654 635 c-12 -8 -27 -28 -34 -45 -7 -16 -17 -30 -22 -30 -7 0 -7 -4
-1 -12 6 -7 9 -51 8 -98 -2 -47 1 -95 5 -106 9 -23 46 -38 56 -22 4 6 6 57 5
114 l-2 104 25 0 c26 0 26 -1 26 -74 0 -114 7 -136 42 -136 l29 0 -7 103 -7
104 33 7 c42 8 31 20 -22 25 -14 2 -8 42 7 47 23 9 18 24 -7 24 -31 0 -42 -9
-61 -47 -12 -23 -22 -30 -36 -26 -23 6 -17 37 10 57 10 7 16 16 12 19 -11 11
-37 8 -59 -8z"/>
<path d="M883 635 c-35 -25 -10 -82 31 -69 38 12 47 42 20 68 -19 20 -24 20
-51 1z m42 -5 c3 -6 -1 -7 -9 -4 -18 7 -21 14 -7 14 6 0 13 -4 16 -10z"/>
<path d="M40 631 c-25 -7 -25 -8 -25 -117 0 -60 2 -127 5 -149 5 -38 7 -40 40
-40 l35 0 1 55 c1 30 -2 79 -6 108 -6 49 -5 52 16 52 26 0 44 19 20 21 -9 1
-22 2 -28 3 -7 0 -13 10 -13 21 0 15 8 21 34 25 19 3 36 11 39 18 4 13 -73 16
-118 3z"/>
<path d="M237 633 c-4 -3 -7 -68 -7 -143 0 -122 2 -139 19 -154 11 -10 28 -16
38 -14 17 3 18 15 15 148 -2 85 -7 149 -14 157 -11 14 -40 17 -51 6z"/>
<path d="M1306 613 c-6 -14 -5 -15 5 -6 7 7 10 15 7 18 -3 3 -9 -2 -12 -12z"/>
<path d="M465 528 c-2 -7 -9 -40 -15 -73 -22 -112 -48 -109 -37 5 4 43 2 60
-8 64 -21 8 -35 -17 -41 -78 -5 -43 -3 -62 10 -81 22 -33 69 -34 99 -1 l23 24
2 -26 c2 -24 16 -42 36 -42 4 0 6 26 3 58 -4 31 -6 81 -7 110 0 51 0 52 -30
52 -17 0 -32 -6 -35 -12z"/>
<path d="M875 530 c-10 -16 -14 -146 -6 -177 6 -21 14 -28 32 -28 24 0 24 1
25 95 0 52 -1 101 -4 108 -5 14 -38 16 -47 2z"/>
<path d="M989 528 c-7 -71 -2 -191 8 -199 21 -18 53 8 53 44 0 26 31 97 43 97
2 0 3 -26 3 -57 -1 -55 0 -58 24 -58 23 0 25 4 28 53 4 67 -17 107 -51 96 -12
-4 -27 -14 -34 -23 -11 -14 -12 -13 -13 6 0 12 -3 28 -6 37 -7 19 -53 22 -55
4z"/>
<path d="M257 260 c-4 -15 0 -20 15 -20 13 0 18 6 16 17 -5 24 -25 27 -31 3z"/>
<path d="M116 258 c-3 -7 -4 -30 -3 -50 0 -38 19 -52 31 -23 3 8 14 15 25 15
24 0 37 35 21 55 -15 18 -69 20 -74 3z m57 -15 c11 -10 -13 -32 -28 -27 -8 3
-11 12 -8 20 5 15 25 19 36 7z"/>
<path d="M304 256 c-4 -10 -2 -22 4 -28 8 -8 13 -7 18 6 4 10 2 22 -4 28 -8 8
-13 7 -18 -6z"/>
<path d="M368 220 c20 -58 38 -64 54 -17 l12 32 8 -32 c5 -18 15 -33 22 -33
13 0 51 89 42 98 -10 9 -25 -10 -32 -41 l-7 -32 -12 34 c-15 46 -34 51 -41 12
-8 -39 -20 -40 -27 -1 -4 17 -13 30 -21 30 -12 0 -12 -8 2 -50z"/>
<path d="M557 264 c-16 -16 -6 -45 18 -54 32 -12 32 -22 0 -18 -13 2 -25 -1
-27 -7 -2 -5 14 -11 35 -13 34 -3 37 -1 37 22 0 16 -7 27 -20 31 -11 3 -20 11
-20 16 0 6 9 7 21 4 15 -5 20 -3 17 6 -5 15 -49 24 -61 13z"/>
<path d="M676 251 c-28 -31 -9 -75 33 -79 39 -4 61 12 61 44 0 49 -61 72 -94
35z m63 -15 c15 -18 3 -46 -20 -46 -22 0 -34 22 -25 45 7 19 30 19 45 1z"/>
<path d="M819 263 c-8 -47 -4 -93 8 -93 8 0 13 6 12 13 -4 30 3 41 11 20 11
-26 28 -30 36 -8 9 22 23 18 19 -5 -2 -11 2 -20 8 -20 17 0 16 92 0 97 -7 3
-18 -7 -24 -21 -15 -32 -23 -33 -37 -1 -11 24 -31 34 -33 18z"/>
<path d="M979 268 c-1 -2 -2 -19 -3 -38 -4 -53 7 -67 48 -62 20 2 33 8 30 14
-3 5 -15 8 -26 6 -12 -2 -23 3 -25 10 -3 7 5 12 21 12 14 0 26 5 26 10 0 6
-11 10 -25 10 -14 0 -25 5 -25 10 0 6 11 10 25 10 14 0 25 5 25 10 0 8 -68 15
-71 8z"/>
<path d="M22 233 c-16 -17 -9 -43 12 -43 19 0 40 36 26 45 -5 3 -10 3 -10 -2
0 -4 -4 -3 -8 3 -5 9 -11 8 -20 -3z"/>
<path d="M223 235 c-3 -10 -1 -20 6 -24 7 -4 11 -14 9 -21 -3 -14 58 -38 69
-27 3 4 1 19 -6 33 -8 19 -17 25 -31 21 -13 -3 -20 0 -20 8 0 21 -19 28 -27
10z"/>
<path d="M1130 242 c0 -7 -5 -10 -11 -6 -7 4 -9 -2 -7 -17 1 -13 11 -25 21
-27 24 -5 33 26 13 46 -11 11 -16 12 -16 4z"/>
<path d="M315 210 c-8 -13 4 -32 16 -25 12 8 12 35 0 35 -6 0 -13 -4 -16 -10z"/>
<path d="M11 83 c0 -25 1 -26 9 -8 12 27 12 35 0 35 -5 0 -10 -12 -9 -27z"/>
<path d="M43 95 c-17 -19 -16 -28 1 -22 8 3 17 1 20 -6 2 -7 5 0 5 16 1 30 -7
34 -26 12z"/>
<path d="M111 97 c-9 -11 -8 -17 4 -27 19 -16 47 -5 43 17 -4 23 -31 28 -47
10z m31 -12 c0 -5 -5 -11 -11 -13 -6 -2 -11 4 -11 13 0 9 5 15 11 13 6 -2 11
-8 11 -13z"/>
<path d="M200 85 c0 -18 5 -25 20 -25 15 0 20 7 20 25 0 18 -5 25 -20 25 -15
0 -20 -7 -20 -25z"/>
<path d="M280 86 c0 -31 6 -34 13 -6 3 11 1 23 -4 26 -5 3 -9 -6 -9 -20z"/>
<path d="M335 88 c1 -14 9 -24 21 -25 10 -2 13 0 7 3 -7 3 -13 14 -13 25 0 10
-4 19 -8 19 -5 0 -8 -10 -7 -22z"/>
<path d="M405 93 c2 -10 4 -21 4 -25 1 -5 11 -7 24 -7 19 1 19 2 3 6 -15 4
-16 7 -5 14 12 7 12 9 -1 9 -13 0 -13 1 0 10 12 8 11 10 -7 10 -15 0 -20 -5
-18 -17z"/>
<path d="M530 84 c0 -21 4 -25 23 -22 14 2 23 11 25 26 3 18 -1 22 -22 22 -21
0 -26 -5 -26 -26z m40 7 c0 -12 -20 -25 -27 -18 -7 7 6 27 18 27 5 0 9 -4 9
-9z"/>
<path d="M616 102 c-3 -5 1 -17 8 -27 16 -22 49 -13 44 12 -3 19 -42 30 -52
15z m36 -17 c0 -5 -5 -11 -11 -13 -6 -2 -11 4 -11 13 0 9 5 15 11 13 6 -2 11
-8 11 -13z"/>
<path d="M708 104 c-3 -3 -4 -14 -1 -25 7 -24 43 -26 42 -1 0 10 -3 12 -6 5
-7 -18 -23 -16 -23 1 0 8 8 17 18 19 14 4 13 5 -4 6 -11 0 -23 -2 -26 -5z"/>
<path d="M840 102 c0 -4 6 -14 13 -21 10 -11 10 -13 0 -7 -7 4 -13 2 -13 -3 0
-13 27 -14 35 -2 3 5 0 13 -6 17 -8 4 -7 9 2 15 10 6 8 9 -8 9 -13 0 -23 -4
-23 -8z"/>
<path d="M918 85 c3 -17 7 -22 12 -15 4 6 11 11 16 11 20 -2 8 24 -12 27 -18
3 -21 -1 -16 -23z"/>
<path d="M1000 91 c-13 -26 -14 -26 15 -26 17 0 24 4 20 13 -3 8 -5 18 -5 23
0 16 -19 10 -30 -10z"/>
<path d="M1070 103 c0 -5 7 -18 15 -29 12 -16 14 -16 15 -3 0 9 -7 22 -15 29
-8 7 -15 8 -15 3z"/>
<path d="M1100 102 c0 -15 27 -45 32 -36 12 23 17 44 8 44 -5 0 -11 -8 -13
-17 -4 -17 -5 -17 -6 0 -1 16 -21 25 -21 9z"/>
</g>
</svg>
