<?xml version="1.0" encoding="UTF-8" standalone="no"?>
<svg
   xmlns:dc="http://purl.org/dc/elements/1.1/"
   xmlns:cc="http://creativecommons.org/ns#"
   xmlns:rdf="http://www.w3.org/1999/02/22-rdf-syntax-ns#"
   xmlns:svg="http://www.w3.org/2000/svg"
   xmlns="http://www.w3.org/2000/svg"
   xmlns:sodipodi="http://sodipodi.sourceforge.net/DTD/sodipodi-0.dtd"
   xmlns:inkscape="http://www.inkscape.org/namespaces/inkscape"
   width="173.96922mm"
   height="158.65157mm"
   viewBox="0 0 173.96922 158.65157"
   version="1.1"
   id="svg8"
   inkscape:version="1.0.1 (3bc2e813f5, 2020-09-07)"
   sodipodi:docname="fluffinpawsome.svg">
  <defs
     id="defs2">
    <clipPath
       clipPathUnits="userSpaceOnUse"
       id="clipPath849">
      <path
         d="M 0,960 H 960 V 0 H 0 Z"
         id="path847" />
    </clipPath>
  </defs>
  <sodipodi:namedview
     id="base"
     pagecolor="#ffffff"
     bordercolor="#666666"
     borderopacity="1.0"
     inkscape:pageopacity="0.0"
     inkscape:pageshadow="2"
     inkscape:zoom="0.35"
     inkscape:cx="380.1893"
     inkscape:cy="519.81397"
     inkscape:document-units="mm"
     inkscape:current-layer="layer1"
     inkscape:document-rotation="0"
     showgrid="false"
     inkscape:window-width="3840"
     inkscape:window-height="2066"
     inkscape:window-x="3829"
     inkscape:window-y="-11"
     inkscape:window-maximized="1" />
  <metadata
     id="metadata5">
    <rdf:RDF>
      <cc:Work
         rdf:about="">
        <dc:format>image/svg+xml</dc:format>
        <dc:type
           rdf:resource="http://purl.org/dc/dcmitype/StillImage" />
        <dc:title></dc:title>
      </cc:Work>
    </rdf:RDF>
  </metadata>
  <g
     inkscape:label="Layer 1"
     inkscape:groupmode="layer"
     id="layer1"
     transform="translate(-5.2415821,-10.632553)">
    <g
       id="g845"
       clip-path="url(#clipPath849)"
       transform="matrix(0.35277777,0,0,-0.35277777,-77.107196,259.03262)">
      <g
         id="g851"
         transform="translate(581.4111,463.4551)">
        <path
           d="m 0,0 c -0.933,-0.73 -2.285,-0.549 -3.011,0.395 -0.599,0.777 -1.35,1.452 -2.267,1.989 -0.944,0.551 -1.931,0.859 -2.921,0.98 -0.762,0.107 -1.517,0.085 -2.251,-0.035 l -0.002,-0.01 c -0.512,-0.078 -1.022,0.029 -1.44,0.267 -0.523,0.308 -0.923,0.845 -1.033,1.503 -0.204,1.175 0.596,2.284 1.758,2.473 1.146,0.186 2.326,0.218 3.497,0.068 C -6.119,7.445 -4.562,6.937 -3.126,6.098 -1.72,5.288 -0.536,4.229 0.393,3.005 1.115,2.064 0.942,0.719 0,0 m -15.252,-0.223 c -0.677,-0.575 -1.273,-1.275 -1.739,-2.079 -0.602,-1.039 -1.915,-1.385 -2.944,-0.789 -1.03,0.601 -1.38,1.909 -0.783,2.939 0.724,1.259 1.656,2.328 2.716,3.218 0.906,0.756 2.257,0.636 3.023,-0.276 0.753,-0.905 0.627,-2.265 -0.273,-3.013 M -1.52,8.881 c -7.434,4.318 -16.958,1.777 -21.267,-5.661 -4.316,-7.435 -1.781,-16.962 5.655,-21.282 7.433,-4.311 16.967,-1.769 21.281,5.669 4.32,7.436 1.78,16.962 -5.669,21.274"
           style="fill:#7b7979;fill-opacity:1;fill-rule:nonzero;stroke:none"
           id="path853" />
      </g>
      <g
         id="g855"
         transform="translate(716.9277,557.2842)">
        <path
           d="m 0,0 c -0.098,-0.776 -0.812,-1.321 -1.592,-1.219 -0.774,0.099 -1.32,0.809 -1.218,1.592 0.085,0.645 0.047,1.315 -0.131,1.991 -0.186,0.697 -0.496,1.302 -0.906,1.83 -0.302,0.397 -0.665,0.745 -1.07,1.03 -0.282,0.2 -0.466,0.482 -0.547,0.79 -0.101,0.394 -0.038,0.831 0.22,1.193 0.453,0.638 1.347,0.785 1.978,0.329 0.62,-0.45 1.184,-0.983 1.664,-1.599 C -0.966,5.116 -0.476,4.157 -0.196,3.09 0.081,2.059 0.139,1.011 0,0 m -8.821,5.808 c -0.583,0.05 -1.182,0.002 -1.786,-0.156 -0.759,-0.201 -1.534,0.246 -1.735,1.007 -0.202,0.759 0.246,1.536 1.003,1.737 0.931,0.25 1.867,0.319 2.772,0.236 0.783,-0.072 1.356,-0.764 1.286,-1.544 -0.073,-0.777 -0.762,-1.35 -1.54,-1.28 M 1.858,3.637 c -1.455,5.496 -7.093,8.763 -12.585,7.308 -5.498,-1.458 -8.761,-7.096 -7.304,-12.585 1.455,-5.499 7.093,-8.766 12.583,-7.31 5.497,1.458 8.763,7.096 7.306,12.587"
           style="fill:#7b7979;fill-opacity:1;fill-rule:nonzero;stroke:none"
           id="path857" />
      </g>
      <g
         id="g859"
         transform="translate(667.7529,672.9834)">
        <path
           d="M 0,0 C -0.528,-0.573 -1.427,-0.611 -2.007,-0.078 -2.48,0.367 -3.048,0.724 -3.705,0.967 -4.38,1.219 -5.056,1.315 -5.722,1.286 -6.223,1.267 -6.716,1.172 -7.181,1.007 V 1.005 c -0.326,-0.109 -0.663,-0.097 -0.962,0.013 -0.381,0.143 -0.702,0.447 -0.844,0.866 -0.263,0.74 0.133,1.554 0.874,1.806 0.725,0.249 1.487,0.399 2.263,0.435 1.038,0.045 2.109,-0.111 3.134,-0.499 1.003,-0.37 1.895,-0.927 2.64,-1.622 C 0.495,1.474 0.534,0.576 0,0 m -9.911,-1.841 c -0.378,-0.448 -0.688,-0.965 -0.907,-1.549 -0.276,-0.736 -1.09,-1.109 -1.827,-0.834 -0.735,0.274 -1.111,1.088 -0.834,1.826 0.333,0.9 0.818,1.704 1.411,2.395 0.505,0.598 1.399,0.668 1.999,0.158 0.595,-0.507 0.664,-1.401 0.158,-1.996 m 7.935,7.46 C -7.3,7.605 -13.225,4.894 -15.204,-0.428 c -1.986,-5.328 0.725,-11.254 6.048,-13.236 5.327,-1.986 11.252,0.726 13.233,6.05 1.988,5.328 -0.725,11.251 -6.053,13.233"
           style="fill:#7b7979;fill-opacity:1;fill-rule:nonzero;stroke:none"
           id="path861" />
      </g>
      <g
         id="g863"
         transform="translate(586.1445,692.3823)">
        <path
           d="m 0,0 c -0.234,-0.67 -0.969,-1.026 -1.643,-0.79 -0.67,0.234 -1.026,0.97 -0.794,1.645 0.204,0.558 0.293,1.158 0.259,1.796 -0.032,0.651 -0.201,1.251 -0.465,1.795 -0.197,0.41 -0.455,0.785 -0.759,1.118 L -3.404,5.561 c -0.212,0.23 -0.321,0.517 -0.34,0.809 -0.017,0.368 0.122,0.745 0.418,1.016 0.52,0.486 1.342,0.45 1.822,-0.075 0.47,-0.515 0.873,-1.096 1.18,-1.731 C 0.092,4.733 0.348,3.784 0.396,2.787 0.45,1.817 0.312,0.874 0,0 M -5.16,7.663 C -5.367,6.984 -6.086,6.6 -6.77,6.807 -7.276,6.96 -7.818,7.029 -8.384,7.003 c -0.717,-0.04 -1.323,0.506 -1.359,1.219 -0.036,0.713 0.506,1.321 1.221,1.359 0.868,0.048 1.714,-0.067 2.506,-0.309 0.683,-0.206 1.065,-0.927 0.856,-1.609 m -2.345,4.067 c -5.163,-0.273 -9.118,-4.679 -8.848,-9.835 0.274,-5.159 4.686,-9.117 9.84,-8.844 5.162,0.274 9.116,4.679 8.838,9.841 -0.272,5.159 -4.678,9.117 -9.83,8.838"
           style="fill:#7b7979;fill-opacity:1;fill-rule:nonzero;stroke:none"
           id="path865" />
      </g>
      <g
         id="g867"
         transform="translate(471.5234,636.3052)">
        <path
           d="M 0,0 C -0.873,-0.233 -1.769,0.289 -2.004,1.166 -2.192,1.892 -2.524,2.588 -3.01,3.234 -3.507,3.896 -4.108,4.408 -4.772,4.791 -5.273,5.083 -5.81,5.292 -6.368,5.423 L -6.37,5.418 c -0.382,0.096 -0.705,0.32 -0.929,0.611 -0.282,0.375 -0.403,0.871 -0.284,1.364 0.2,0.885 1.093,1.431 1.969,1.219 C -4.753,8.403 -3.917,8.079 -3.141,7.631 -2.104,7.037 -1.16,6.222 -0.4,5.206 0.349,4.226 0.868,3.135 1.163,1.996 1.393,1.122 0.873,0.228 0,0 m -10.789,4.343 c -0.643,-0.203 -1.267,-0.516 -1.838,-0.946 -0.727,-0.549 -1.75,-0.407 -2.296,0.317 -0.548,0.721 -0.408,1.747 0.319,2.291 0.881,0.673 1.849,1.153 2.854,1.463 0.862,0.265 1.776,-0.219 2.042,-1.086 0.265,-0.86 -0.223,-1.776 -1.081,-2.039 m -4.276,4.648 c -5.231,-3.954 -6.258,-11.398 -2.305,-16.626 3.953,-5.232 11.402,-6.255 16.628,-2.302 5.231,3.955 6.255,11.4 2.296,16.628 -3.952,5.228 -11.397,6.255 -16.619,2.3"
           style="fill:#7b7979;fill-opacity:1;fill-rule:nonzero;stroke:none"
           id="path869" />
      </g>
      <g
         id="g871"
         transform="translate(446.2876,538.8311)">
        <path
           d="m 0,0 c -0.33,-1.048 -1.45,-1.624 -2.5,-1.294 -0.863,0.282 -1.795,0.397 -2.773,0.321 -1.002,-0.078 -1.919,-0.362 -2.742,-0.79 -0.63,-0.322 -1.193,-0.737 -1.689,-1.219 l 0.003,-0.008 c -0.348,-0.327 -0.787,-0.515 -1.233,-0.552 -0.565,-0.043 -1.151,0.155 -1.58,0.597 -0.776,0.785 -0.751,2.052 0.035,2.812 0.774,0.744 1.653,1.387 2.62,1.891 1.283,0.675 2.731,1.11 4.269,1.227 C -4.099,3.111 -2.642,2.93 -1.286,2.49 -0.241,2.155 0.338,1.04 0,0 m -11.483,-8.213 c -0.211,-0.791 -0.297,-1.638 -0.23,-2.501 0.091,-1.101 -0.724,-2.057 -1.82,-2.146 -1.096,-0.086 -2.055,0.724 -2.141,1.822 -0.113,1.341 0.027,2.645 0.365,3.878 0.294,1.053 1.382,1.675 2.444,1.383 1.052,-0.29 1.674,-1.389 1.382,-2.436 m 5.647,14.165 c -7.931,-0.635 -13.838,-7.59 -13.193,-15.516 0.638,-7.93 7.589,-13.839 15.519,-13.201 7.931,0.635 13.835,7.598 13.2,15.525 C 9.053,0.692 2.098,6.595 -5.836,5.952"
           style="fill:#7b7979;fill-opacity:1;fill-rule:nonzero;stroke:none"
           id="path873" />
      </g>
      <g
         id="g875"
         transform="translate(367.3398,582.7969)">
        <path
           d="m 0,0 c -0.19,-1.359 -0.645,-2.621 -1.31,-3.741 -0.509,-0.869 -1.619,-1.158 -2.479,-0.649 -0.871,0.507 -1.158,1.621 -0.651,2.489 0.423,0.716 0.713,1.523 0.844,2.413 0.132,0.91 0.062,1.785 -0.156,2.602 -0.157,0.63 -0.415,1.216 -0.745,1.755 h -0.007 c -0.225,0.373 -0.304,0.806 -0.247,1.211 0.075,0.512 0.37,0.994 0.853,1.289 0.854,0.534 1.979,0.257 2.499,-0.597 0.507,-0.839 0.906,-1.753 1.161,-2.72 C 0.108,2.773 0.201,1.393 0,0 M -6.356,8.251 C -6.828,7.372 -7.935,7.04 -8.808,7.508 c -0.665,0.349 -1.401,0.595 -2.182,0.708 -1.004,0.139 -1.694,1.061 -1.551,2.055 0.142,0.997 1.058,1.689 2.058,1.546 1.217,-0.169 2.353,-0.556 3.384,-1.106 0.882,-0.474 1.215,-1.57 0.743,-2.46 m -2.141,6.263 c -7.201,1.026 -13.871,-3.988 -14.899,-11.192 -1.027,-7.203 3.997,-13.873 11.197,-14.899 7.207,-1.027 13.874,3.99 14.895,11.199 1.027,7.203 -3.99,13.871 -11.193,14.892"
           style="fill:#7b7979;fill-opacity:1;fill-rule:nonzero;stroke:none"
           id="path877" />
      </g>
      <g
         id="g879"
         transform="translate(647.0234,505.2715)">
        <path
           d="M 0,0 C -0.777,0.451 -1.039,1.435 -0.587,2.209 -0.043,3.154 0.652,3.958 1.452,4.625 2.133,5.193 3.148,5.103 3.721,4.419 4.29,3.738 4.191,2.718 3.518,2.155 3.008,1.724 2.56,1.198 2.21,0.592 1.76,-0.187 0.771,-0.447 0,0 M 6.588,8.005 C 7.449,8.145 8.333,8.168 9.216,8.057 10.381,7.917 11.548,7.534 12.629,6.903 13.686,6.295 14.573,5.5 15.271,4.58 15.814,3.873 15.685,2.863 14.979,2.324 14.274,1.774 13.261,1.911 12.715,2.618 12.265,3.203 11.699,3.709 11.01,4.114 10.302,4.527 9.56,4.76 8.814,4.851 8.245,4.932 7.678,4.915 7.125,4.824 L 7.121,4.816 C 6.739,4.756 6.355,4.838 6.041,5.017 5.648,5.25 5.348,5.652 5.267,6.147 5.111,7.03 5.715,7.863 6.588,8.005 M 18.095,-6.989 c 3.243,5.588 1.336,12.746 -4.26,15.986 -5.585,3.242 -12.741,1.334 -15.98,-4.256 -3.242,-5.585 -1.337,-12.742 4.25,-15.988 5.583,-3.24 12.748,-1.329 15.99,4.258"
           style="fill:#7b7979;fill-opacity:1;fill-rule:nonzero;stroke:none"
           id="path881" />
      </g>
      <g
         id="g883"
         transform="translate(664.9053,312.7539)">
        <path
           d="m 0,0 c -0.101,-0.778 -0.812,-1.322 -1.592,-1.221 -0.776,0.1 -1.32,0.811 -1.22,1.593 0.085,0.647 0.049,1.315 -0.13,1.991 -0.186,0.697 -0.497,1.302 -0.903,1.83 -0.306,0.397 -0.668,0.745 -1.073,1.029 -0.281,0.202 -0.465,0.482 -0.546,0.791 -0.102,0.393 -0.038,0.83 0.22,1.191 0.452,0.639 1.345,0.787 1.977,0.331 0.621,-0.451 1.185,-0.984 1.664,-1.599 0.634,-0.821 1.127,-1.78 1.405,-2.847 C 0.081,2.058 0.135,1.009 0,0 m -8.821,5.806 c -0.583,0.05 -1.183,0.002 -1.79,-0.155 -0.758,-0.202 -1.531,0.246 -1.733,1.008 -0.203,0.757 0.247,1.536 1.005,1.736 0.928,0.25 1.866,0.32 2.772,0.236 0.782,-0.072 1.354,-0.763 1.286,-1.544 -0.073,-0.776 -0.762,-1.35 -1.54,-1.281 m -1.908,5.138 c -5.496,-1.458 -8.762,-7.096 -7.302,-12.586 1.452,-5.498 7.091,-8.765 12.582,-7.309 5.496,1.457 8.764,7.097 7.307,12.587 -1.457,5.496 -7.095,8.762 -12.587,7.308"
           style="fill:#7b7979;fill-opacity:1;fill-rule:nonzero;stroke:none"
           id="path885" />
      </g>
      <g
         id="g887"
         transform="translate(251.2822,319.4131)">
        <path
           d="m 0,0 c -0.201,-0.762 -0.976,-1.21 -1.733,-1.008 -0.606,0.156 -1.206,0.205 -1.788,0.154 -0.781,-0.068 -1.469,0.505 -1.541,1.282 -0.069,0.781 0.504,1.471 1.286,1.544 0.906,0.084 1.844,0.013 2.772,-0.237 C -0.246,1.536 0.201,0.757 0,0 M -6.879,-0.646 C -6.962,-0.955 -7.145,-1.235 -7.426,-1.437 -7.83,-1.721 -8.192,-2.069 -8.498,-2.466 -8.905,-2.994 -9.216,-3.6 -9.4,-4.296 -9.58,-4.972 -9.618,-5.641 -9.532,-6.287 -9.43,-7.069 -9.977,-7.78 -10.751,-7.88 c -0.78,-0.101 -1.493,0.443 -1.592,1.221 -0.137,1.009 -0.08,2.057 0.198,3.089 0.279,1.067 0.769,2.026 1.404,2.846 0.48,0.616 1.043,1.149 1.665,1.6 0.632,0.456 1.525,0.308 1.977,-0.331 0.258,-0.361 0.322,-0.798 0.22,-1.191 m 5.263,4.931 c -5.491,1.454 -11.129,-1.812 -12.585,-7.308 -1.457,-5.491 1.809,-11.13 7.306,-12.587 5.491,-1.456 11.129,1.811 12.584,7.309 C 7.147,-2.812 3.88,2.827 -1.616,4.285"
           style="fill:#7b7979;fill-opacity:1;fill-rule:nonzero;stroke:none"
           id="path889" />
      </g>
      <g
         id="g891"
         transform="translate(258.564,469.8633)">
        <path
           d="m 0,0 c 2.194,0 6.921,0.845 10.636,1.519 9.792,0.675 18.909,0 21.947,-1.519 6.753,-3.715 1.688,-8.44 -8.947,-9.116 -8.273,0 -19.754,-1.52 -19.754,-2.196 0,-0.675 0.676,-3.883 0.676,-6.921 0.675,-9.117 0,-8.274 9.116,-8.274 9.793,0.677 15.026,-1.518 12.831,-4.557 -1.519,-1.52 -4.389,-3.208 -11.986,-3.883 -3.715,0 -7.598,-0.677 -7.598,-0.677 v -5.4 c 0.675,-3.039 4.558,-48.456 5.234,-56.052 0.676,-12.832 0.676,-15.363 0,-17.559 -1.519,-2.194 -3.883,-3.039 -13.675,-3.039 -14.351,0 -15.195,1.689 -16.714,17.559 0,6.077 -3.715,71.246 -3.039,83.4 0,5.235 0.844,10.637 0.844,11.313 1.519,2.194 6.922,3.882 12.156,3.882 3.039,0 6.753,0.845 8.273,1.52"
           style="fill:#231f20;fill-opacity:1;fill-rule:nonzero;stroke:none"
           id="path893" />
      </g>
      <g
         id="g895"
         transform="translate(321.0225,467.8379)">
        <path
           d="M 0,0 C 0,1.013 2.194,2.194 3.207,3.207 6.416,4.22 14.688,4.22 17.896,2.194 c 2.025,-1.013 4.22,-3.209 5.234,-6.416 2.025,-4.22 2.025,-8.44 2.025,-45.245 0,-36.804 1.182,-42.039 2.195,-50.48 2.026,-8.442 2.026,-9.455 1.013,-11.481 -8.442,-7.428 -20.935,-2.194 -24.143,1.014 -5.233,6.246 -6.415,11.649 -6.415,44.233 0,33.596 1.182,65.166 2.195,66.181"
           style="fill:#231f20;fill-opacity:1;fill-rule:nonzero;stroke:none"
           id="path897" />
      </g>
      <g
         id="g899"
         transform="translate(406.6138,426.9805)">
        <path
           d="m 0,0 c 0.844,4.728 0.844,5.403 4.726,6.247 3.208,1.52 12.831,1.52 16.714,0 3.884,-0.844 4.727,-3.208 3.884,-7.935 -0.845,-10.297 0,-43.389 3.207,-59.258 0.844,-3.884 0.844,-7.937 0.844,-8.781 -0.844,-3.881 -6.415,-5.4 -11.986,-3.038 -2.364,1.52 -3.208,3.208 -4.727,15.026 -1.519,7.935 0.674,23.468 -4.897,4.896 -3.545,-9.454 -12.494,-16.04 -24.311,-15.194 -19.753,-1.352 -22.454,21.271 -21.441,33.933 2.195,29.546 7.091,33.596 8.61,35.118 5.571,3.207 11.143,0.673 11.987,-5.572 0,-1.52 -2.195,-15.702 -3.039,-24.479 -0.844,-14.184 -0.507,-13.676 0.338,-20.599 0.844,-3.207 2.87,-7.427 6.922,-6.584 2.363,3.208 5.233,15.027 7.597,24.48 C -3.209,-18.233 -0.845,-5.571 0,0"
           style="fill:#231f20;fill-opacity:1;fill-rule:nonzero;stroke:none"
           id="path901" />
      </g>
      <g
         id="g903"
         transform="translate(464.6821,450.1094)">
        <path
           d="m 0,0 c 3.039,14.182 9.117,20.091 20.09,24.144 4.052,1.012 11.143,1.012 15.195,-1.012 5.064,-2.028 4.05,-5.067 -3.038,-6.079 -5.065,-1.014 -8.105,-4.896 -11.143,-20.091 -1.014,-3.038 0.843,-3.038 7.934,-3.038 11.142,-0.846 9.116,0.505 10.131,5.571 2.025,6.076 2.362,10.467 6.414,14.687 11.987,12.832 26.843,5.572 26.843,1.519 1.014,-3.039 -0.168,-5.909 -4.051,-2.025 -9.116,0.338 -7.934,-10.299 -7.934,-13.337 -1.013,-6.078 -1.013,-5.91 9.116,-6.923 10.975,-1.012 12.662,-1.183 12.662,-3.207 0,-4.053 -3.038,-4.39 -11.648,-5.065 -12.156,0 -12.325,0.168 -11.312,-15.025 1.014,-17.222 2.194,-38.832 4.22,-50.987 2.024,-10.129 1.858,-10.129 -1.18,-12.155 -3.04,-2.028 -15.027,-2.028 -18.065,0 -4.054,3.039 -6.923,18.57 -6.923,48.791 0,33.427 2.195,29.882 -10.129,29.713 -6.078,0.169 -6.923,0.338 -7.936,-2.701 -2.028,-6.078 -1.182,-52.675 0.844,-65.843 1.014,-6.079 1.014,-12.155 1.014,-12.155 1.013,-4.052 -11.987,-5.91 -18.065,-2.871 -5.064,1.014 -6.247,4.897 -8.273,18.065 -1.013,12.156 0,56.726 1.013,62.804 1.013,2.027 0.169,1.858 -1.856,2.87 -6.079,2.026 -6.247,6.246 0.843,7.26 C -2.195,-6.076 -2.025,-5.064 0,0"
           style="fill:#231f20;fill-opacity:1;fill-rule:nonzero;stroke:none"
           id="path905" />
      </g>
      <g
         id="g907"
         transform="translate(557.5273,416.3447)">
        <path
           d="m 0,0 c 0.506,14.856 3.546,15.699 5.907,16.883 3.04,2.363 9.963,2.532 11.82,0.675 4.556,-3.377 4.896,-11.817 4.39,-36.467 -0.34,-3.883 -0.171,-14.52 0.506,-24.48 C 23.13,-59.091 23.13,-59.766 21.609,-61.96 7.597,-69.39 3.375,-62.129 1.351,-56.559 -1.689,-50.143 -2.701,-27.687 0,0"
           style="fill:#231f20;fill-opacity:1;fill-rule:nonzero;stroke:none"
           id="path909" />
      </g>
      <g
         id="g911"
         transform="translate(602.7676,432.0439)">
        <path
           d="M 0,0 C 0,0.846 1.687,1.522 3.207,1.522 7.258,3.041 13.676,2.365 16.882,0.846 20.091,0 21.78,-7.258 23.299,-20.764 c 0.843,-5.571 0.843,-5.571 2.362,-2.364 2.363,4.727 7.936,9.624 11.987,11.143 6.417,3.209 13.509,1.519 17.56,-3.207 3.207,-5.572 4.726,-11.989 4.726,-31.235 0.844,-18.401 0.844,-19.92 -3.883,-21.44 -4.726,-2.365 -15.194,-0.846 -17.558,2.362 -2.193,2.872 1.859,24.143 1.859,31.404 0.842,12.83 0.335,14.012 -1.185,11.648 -3.206,-3.208 -14.349,-21.61 -15.193,-23.974 -0.845,-1.518 -0.675,-7.934 -0.675,-15.869 0,-14.35 -6.417,-15.026 -14.688,-16.208 -8.779,1.182 -10.974,-4.39 -10.13,40.181 C -1.182,-18.401 -0.845,-0.843 0,0"
           style="fill:#231f20;fill-opacity:1;fill-rule:nonzero;stroke:none"
           id="path913" />
      </g>
      <g
         id="g915"
         transform="translate(688.8613,435.2041)">
        <path
           d="M 0,0 C 0.708,2.261 3.125,3.516 5.387,2.8 7.647,2.086 8.898,-0.326 8.191,-2.58 7.483,-4.845 5.066,-6.103 2.805,-5.388 0.542,-4.679 -0.715,-2.263 0,0 m 3.433,32.301 c -1.097,0.043 -2.117,0.63 -2.896,1.675 -0.769,1.037 -1.254,2.521 -1.188,4.164 0.051,1.63 0.642,3.076 1.483,4.052 0.857,0.991 1.907,1.503 3.019,1.468 1.098,-0.042 2.114,-0.632 2.892,-1.677 0.773,-1.043 1.244,-2.527 1.191,-4.156 -0.06,-1.64 -0.649,-3.082 -1.49,-4.066 -0.852,-0.989 -1.909,-1.5 -3.011,-1.46 m 23.302,-0.475 c 0.991,1.392 2.327,2.314 3.629,2.689 1.304,0.37 2.524,0.212 3.463,-0.453 0.937,-0.67 1.478,-1.766 1.557,-3.123 0.077,-1.35 -0.35,-2.916 -1.344,-4.309 -0.992,-1.397 -2.33,-2.316 -3.629,-2.687 -1.307,-0.371 -2.523,-0.213 -3.465,0.452 -0.934,0.668 -1.48,1.764 -1.559,3.124 -0.076,1.349 0.356,2.918 1.348,4.307 M -14.706,-34.896 2.617,-8.537 0.315,-40.124 c 0,0 6.038,4.053 8.492,9.886 2.469,5.868 8.919,29.958 4.171,37.386 0,0 -0.022,0.025 -0.033,0.03 L 24.088,24.13 c 0.391,-0.614 0.893,-1.165 1.516,-1.625 3.275,-2.255 7.788,-0.771 10.329,2.78 2.523,3.567 2.438,8.313 -0.767,10.66 C 31.896,38.21 27.384,36.729 24.85,33.17 24.521,32.702 24.235,32.22 23.996,31.722 22.667,29.363 17.231,19.813 13.428,14.402 12.559,13.178 10.854,12.58 9.097,12.304 8.42,13.568 7.944,14.905 7.993,16.111 c 0.31,7.584 2.245,20.797 2.245,20.797 L 10.05,36.717 c 0.05,0.335 0.088,0.678 0.1,1.027 0.141,4.186 -2.421,7.945 -6.229,8.132 -3.802,0.084 -6.635,-3.477 -6.793,-7.666 -0.149,-4.178 2.424,-7.938 6.227,-8.126 0.741,-0.016 1.449,0.111 2.108,0.353 L 3.775,11.098 C 3.375,11.134 0.004,8.467 -1.711,6.58 -9.613,-2.11 -13.375,-14.229 -15.23,-21.397 c -1.801,-6.933 0.524,-13.499 0.524,-13.499"
           style="fill:#231f20;fill-opacity:1;fill-rule:nonzero;stroke:none"
           id="path917" />
      </g>
      <g
         id="g919"
         transform="translate(284.7212,312.4961)">
        <path
           d="m 0,0 h 7.08 c 4.761,0 7.466,2.162 7.466,6.491 0,4.215 -2.705,6.323 -7.466,6.323 H 0 Z m 7.517,19.896 c 9.623,0 15.138,-4.758 15.138,-13.135 0,-8.816 -5.515,-13.896 -15.138,-13.896 H 0 v -10.814 h -8.541 v 37.845 z"
           style="fill:#231f20;fill-opacity:1;fill-rule:nonzero;stroke:none"
           id="path921" />
      </g>
      <g
         id="g923"
         transform="translate(402.4995,294.5469)">
        <path
           d="M 0,0 -7.622,26.979 -15.406,0 h -8.809 l -12.499,37.845 h 9.194 l 7.949,-28.547 7.895,28.547 h 8.38 L 4.703,9.298 12.598,37.845 h 8.755 L 8.812,0 Z"
           style="fill:#231f20;fill-opacity:1;fill-rule:nonzero;stroke:none"
           id="path925" />
      </g>
      <g
         id="g927"
         transform="translate(466.6011,328.6582)">
        <path
           d="m 0,0 -3.301,-7.077 c -3.999,2.379 -8.756,3.884 -11.783,3.884 -2.863,0 -4.814,-1.018 -4.814,-3.073 0,-6.977 20.169,-3.081 20.115,-16.706 0,-7.409 -6.431,-11.413 -14.814,-11.413 -6.222,0 -12.437,2.386 -16.706,6.005 l 3.4,6.972 c 3.897,-3.456 9.41,-5.671 13.419,-5.671 3.502,0 5.616,1.299 5.616,3.62 0,7.139 -20.168,2.971 -20.168,16.382 0,6.864 5.895,11.191 14.651,11.191 C -9.082,4.114 -3.785,2.489 0,0"
           style="fill:#231f20;fill-opacity:1;fill-rule:nonzero;stroke:none"
           id="path929" />
      </g>
      <g
         id="g931"
         transform="translate(489.6709,313.4678)">
        <path
           d="m 0,0 c 0,-6.648 5.354,-11.839 11.678,-11.839 6.326,0 11.465,5.191 11.465,11.839 0,6.649 -5.139,11.733 -11.465,11.733 C 5.299,11.733 0,6.649 0,0 M 31.9,0 C 31.9,-10.916 23.143,-19.297 11.571,-19.297 0,-19.297 -8.758,-10.973 -8.758,0 -8.758,11.025 0,19.196 11.571,19.196 23.143,19.196 31.9,10.979 31.9,0"
           style="fill:#231f20;fill-opacity:1;fill-rule:nonzero;stroke:none"
           id="path933" />
      </g>
      <g
         id="g935"
         transform="translate(571.4004,294.5469)">
        <path
           d="M 0,0 V 25.522 L -10.052,3.837 h -5.57 l -10.06,21.685 V 0 h -7.726 v 37.845 h 9.568 l 11.031,-23.138 10.973,23.138 h 9.51 L 7.674,0 Z"
           style="fill:#231f20;fill-opacity:1;fill-rule:nonzero;stroke:none"
           id="path937" />
      </g>
      <g
         id="g939"
         transform="translate(606.7959,325.3105)">
        <path
           d="M 0,0 V -8.219 H 18.274 V -15.3 H 0 v -8.382 h 20.869 v -7.082 H -8.542 V 7.081 H 20.275 V 0 Z"
           style="fill:#231f20;fill-opacity:1;fill-rule:nonzero;stroke:none"
           id="path941" />
      </g>
      <g
         id="g943"
         transform="translate(345.0571,306.4453)">
        <path
           d="m 0,0 c 1.528,-2.814 5.071,-7.268 4.25,-10.443 -1.875,-7.258 -7.123,-3.931 -15.31,-1.809 -8.186,2.111 -15.371,1.76 -13.493,9.016 1.27,4.919 4.134,6.807 9.241,7.896 2.412,0.512 6.166,4.151 8.8,3.471 C -1.913,6.937 -1.967,3.618 0,0"
           style="fill:#47c2c9;fill-opacity:1;fill-rule:nonzero;stroke:none"
           id="path945" />
      </g>
      <g
         id="g947"
         transform="translate(326.5293,315.5537)">
        <path
           d="m 0,0 c -0.962,-3.72 -4.197,-6.093 -7.244,-5.312 -3.038,0.797 -4.724,4.438 -3.763,8.155 0.958,3.712 4.203,6.089 7.245,5.302 C -0.724,7.364 0.956,3.72 0,0"
           style="fill:#47c2c9;fill-opacity:1;fill-rule:nonzero;stroke:none"
           id="path949" />
      </g>
      <g
         id="g951"
         transform="translate(361.2358,306.5869)">
        <path
           d="m 0,0 c -0.957,-3.721 -4.205,-6.093 -7.241,-5.309 -3.037,0.782 -4.721,4.438 -3.766,8.148 0.96,3.716 4.203,6.091 7.241,5.308 C -0.732,7.36 0.961,3.712 0,0"
           style="fill:#47c2c9;fill-opacity:1;fill-rule:nonzero;stroke:none"
           id="path953" />
      </g>
      <g
         id="g955"
         transform="translate(341.5146,326.3164)">
        <path
           d="m 0,0 c -1.11,-4.311 -4.872,-7.066 -8.391,-6.153 -3.528,0.908 -5.48,5.139 -4.373,9.454 1.118,4.305 4.878,7.055 8.404,6.152 C -0.836,8.537 1.125,4.309 0,0"
           style="fill:#47c2c9;fill-opacity:1;fill-rule:nonzero;stroke:none"
           id="path957" />
      </g>
      <g
         id="g959"
         transform="translate(357.0576,322.0117)">
        <path
           d="m 0,0 c -1.112,-4.306 -4.877,-7.059 -8.401,-6.147 -3.53,0.903 -5.48,5.136 -4.37,9.449 1.114,4.31 4.874,7.066 8.406,6.156 C -0.844,8.543 1.106,4.312 0,0"
           style="fill:#47c2c9;fill-opacity:1;fill-rule:nonzero;stroke:none"
           id="path961" />
      </g>
      <g
         id="g963"
         transform="translate(254.999,254.5977)">
        <path
           d="M 0,0 V 12.948 L -5.103,1.947 h -2.825 l -5.103,11.001 V 0 h -3.923 v 19.203 h 4.855 L -6.502,7.461 -0.933,19.203 H 3.896 V 0 Z"
           style="fill:#231f20;fill-opacity:1;fill-rule:nonzero;stroke:none"
           id="path965" />
      </g>
      <g
         id="g967"
         transform="translate(277.5322,264.1992)">
        <path
           d="m 0,0 c 0,-3.375 2.716,-6.008 5.926,-6.008 3.209,0 5.816,2.633 5.816,6.008 0,3.374 -2.607,5.954 -5.816,5.954 C 2.688,5.954 0,3.374 0,0 m 16.186,0 c 0,-5.542 -4.444,-9.794 -10.315,-9.794 C 0,-9.794 -4.444,-5.568 -4.444,0 -4.444,5.597 0,9.739 5.871,9.739 11.742,9.739 16.186,5.568 16.186,0"
           style="fill:#231f20;fill-opacity:1;fill-rule:nonzero;stroke:none"
           id="path969" />
      </g>
      <g
         id="g971"
         transform="translate(312.2178,258.1367)">
        <path
           d="M 0,0 H 4.28 C 6.337,0 7.572,0.85 7.572,2.332 7.572,3.73 6.337,4.581 4.28,4.581 H 0 Z m 0,7.928 h 4.28 c 1.618,0 2.634,0.796 2.634,2.14 0,1.317 -1.016,2.057 -2.634,2.057 H 0 Z m 4.5,7.736 c 4.224,0 6.858,-1.838 6.858,-4.801 0,-2.085 -1.262,-3.704 -3.32,-4.224 2.469,-0.467 4.006,-2.331 4.006,-4.857 0,-3.292 -2.771,-5.321 -7.243,-5.321 h -9.135 v 19.203 z"
           style="fill:#231f20;fill-opacity:1;fill-rule:nonzero;stroke:none"
           id="path973" />
      </g>
      <path
         d="m 338.728,273.801 h 4.334 v -19.203 h -4.334 z"
         style="fill:#231f20;fill-opacity:1;fill-rule:nonzero;stroke:none"
         id="path975" />
      <g
         id="g977"
         transform="translate(371.187,258.3828)">
        <path
           d="M 0,0 V -3.785 H -12.564 V 15.418 H -8.23 V 0 Z"
           style="fill:#231f20;fill-opacity:1;fill-rule:nonzero;stroke:none"
           id="path979" />
      </g>
      <g
         id="g981"
         transform="translate(389.4102,270.207)">
        <path
           d="M 0,0 V -4.17 H 9.272 V -7.763 H 0 v -4.253 h 10.589 v -3.593 H -4.335 V 3.594 H 10.288 V 0 Z"
           style="fill:#231f20;fill-opacity:1;fill-rule:nonzero;stroke:none"
           id="path983" />
      </g>
      <g
         id="g985"
         transform="translate(436.9658,258.2461)">
        <path
           d="m 0,0 h 3.923 c 3.21,0 5.569,2.414 5.569,5.926 0,3.539 -2.469,5.981 -5.761,5.981 H 0 Z m 3.813,15.555 c 5.954,0 10.096,-3.923 10.096,-9.602 0,-5.652 -4.197,-9.601 -10.261,-9.601 h -7.982 v 19.203 z"
           style="fill:#231f20;fill-opacity:1;fill-rule:nonzero;stroke:none"
           id="path987" />
      </g>
      <g
         id="g989"
         transform="translate(467.6177,264.1992)">
        <path
           d="m 0,0 c 0,-3.375 2.716,-6.008 5.926,-6.008 3.209,0 5.815,2.633 5.815,6.008 0,3.374 -2.606,5.954 -5.815,5.954 C 2.688,5.954 0,3.374 0,0 m 16.186,0 c 0,-5.542 -4.445,-9.794 -10.315,-9.794 C 0,-9.794 -4.445,-5.568 -4.445,0 -4.445,5.597 0,9.739 5.871,9.739 11.741,9.739 16.186,5.568 16.186,0"
           style="fill:#231f20;fill-opacity:1;fill-rule:nonzero;stroke:none"
           id="path991" />
      </g>
      <g
         id="g993"
         transform="translate(514.1289,264.2822)">
        <path
           d="m 0,0 v -7.381 c -2.031,-1.48 -5.131,-2.496 -7.791,-2.496 -5.816,0 -10.234,4.226 -10.234,9.794 0,5.542 4.5,9.739 10.48,9.739 2.854,0 5.762,-1.097 7.709,-2.799 L -2.277,3.758 c -1.426,1.317 -3.402,2.139 -5.268,2.139 -3.401,0 -6.035,-2.606 -6.035,-5.98 0,-3.402 2.661,-6.008 6.063,-6.008 1.152,0 2.524,0.411 3.758,1.042 V 0 Z"
           style="fill:#231f20;fill-opacity:1;fill-rule:nonzero;stroke:none"
           id="path995" />
      </g>
      <g
         id="g997"
         transform="translate(561.4658,271.9082)">
        <path
           d="m 0,0 -1.674,-3.595 c -2.031,1.208 -4.445,1.976 -5.981,1.976 -1.453,0 -2.442,-0.522 -2.442,-1.564 0,-3.539 10.234,-1.563 10.205,-8.476 0,-3.759 -3.263,-5.789 -7.516,-5.789 -3.155,0 -6.31,1.207 -8.478,3.045 l 1.73,3.539 c 1.974,-1.755 4.773,-2.881 6.803,-2.881 1.784,0 2.854,0.659 2.854,1.839 0,3.621 -10.233,1.509 -10.233,8.311 0,3.486 2.99,5.68 7.433,5.68 C -4.609,2.085 -1.921,1.263 0,0"
           style="fill:#231f20;fill-opacity:1;fill-rule:nonzero;stroke:none"
           id="path999" />
      </g>
      <g
         id="g1001"
         transform="translate(580.2646,263.7061)">
        <path
           d="M 0,0 H 3.594 C 6.008,0 7.38,1.097 7.38,3.292 7.38,5.432 6.008,6.501 3.594,6.501 H 0 Z m 3.813,10.095 c 4.884,0 7.682,-2.414 7.682,-6.667 0,-4.472 -2.798,-7.05 -7.682,-7.05 H 0 v -5.486 h -4.335 v 19.203 z"
           style="fill:#231f20;fill-opacity:1;fill-rule:nonzero;stroke:none"
           id="path1003" />
      </g>
      <g
         id="g1005"
         transform="translate(612.7559,269.2754)">
        <path
           d="m 0,0 -3.046,-7.463 h 6.064 z m -4.472,-10.947 -1.509,-3.731 h -4.472 l 8.34,19.203 h 4.472 l 8.202,-19.203 H 5.925 l -1.509,3.731 z"
           style="fill:#231f20;fill-opacity:1;fill-rule:nonzero;stroke:none"
           id="path1007" />
      </g>
      <g
         id="g1009"
         transform="translate(651.6924,254.5977)">
        <path
           d="M 0,0 -3.868,13.689 -7.819,0 h -4.472 l -6.337,19.203 h 4.663 l 4.033,-14.484 4.006,14.484 h 4.252 L 2.387,4.719 6.392,19.203 h 4.444 L 4.472,0 Z"
           style="fill:#231f20;fill-opacity:1;fill-rule:nonzero;stroke:none"
           id="path1011" />
      </g>
      <g
         id="g1013"
         transform="translate(266.1528,574.0654)">
        <path
           d="M 0,0 C -2.528,0.876 -0.788,12.558 4.569,18.933 9.88,25.279 20.294,34.005 31.943,32.555 38.954,31.684 43.997,27.528 43.866,24.78 43.161,24.306 29.143,24.449 19.238,18.328 8.986,11.99 0.19,-0.07 0,0"
           style="fill:#231f20;fill-opacity:1;fill-rule:nonzero;stroke:none"
           id="path1015" />
      </g>
      <g
         id="g1017"
         transform="translate(245.9043,556.2534)">
        <path
           d="m 0,0 v 0 c -1.032,9.974 0.551,21.757 7.57,33.787 1.348,2.324 4.32,3.106 6.641,1.753 2.321,-1.348 4.722,-4.232 3.373,-6.548 C 4.812,-0.858 19.723,-29.541 17.454,-30.961 16.799,-31.371 2.728,-18.401 0,0"
           style="fill:#231f20;fill-opacity:1;fill-rule:nonzero;stroke:none"
           id="path1019" />
      </g>
      <g
         id="g1021"
         transform="translate(246.8579,511.9287)">
        <path
           d="m 0,0 v 0 c -6.622,7.53 -12.161,18.051 -13.407,31.921 -0.249,2.673 1.715,6.652 4.392,6.897 2.672,0.243 7.107,-1.893 7.726,-6.143 C 3.709,-1.782 33.198,-12.654 32.166,-15.128 31.866,-15.833 10.416,-12.767 0,0"
           style="fill:#231f20;fill-opacity:1;fill-rule:nonzero;stroke:none"
           id="path1023" />
      </g>
      <g
         id="g1025"
         transform="translate(605.3857,620.2871)">
        <path
           d="M 0,0 C -0.062,0.059 -0.072,0.07 0,0"
           style="fill:#231f20;fill-opacity:1;fill-rule:nonzero;stroke:none"
           id="path1027" />
      </g>
      <g
         id="g1029"
         transform="translate(605.3857,620.2871)">
        <path
           d="m 0,0 c -0.072,0.07 -0.062,0.059 0,0 m 3.076,3.562 c -3.097,4.596 -9.052,5.207 -13.504,2.272 -3.956,-2.609 -4.922,-8.217 -4.118,-12.585 0.317,-1.693 1.507,-3.749 3.26,-4.276 1.746,-0.531 2.256,1.356 2.008,2.688 -0.158,0.844 -0.107,0.57 -0.085,1.683 0.023,1.77 0.623,3.355 1.693,4.745 1.399,1.826 4.335,2.887 6.561,2.398 C -0.582,0.373 -0.202,0.153 0.119,-0.121 0.186,-0.187 0.261,-0.263 0.297,-0.324 0.971,-1.321 2.984,-2.803 4.005,-1.38 5.077,0.107 3.926,2.289 3.076,3.562"
           style="fill:#231f20;fill-opacity:1;fill-rule:nonzero;stroke:none"
           id="path1031" />
      </g>
      <g
         id="g1033"
         transform="translate(611.5898,523.8193)">
        <path
           d="m 0,0 v 0 c -1.237,3.363 0.479,7.083 3.836,8.32 3.353,1.242 7.076,-0.471 8.313,-3.829 2.493,-6.893 3.997,-17.606 4.069,-29.996 C 16.209,-39.696 14.228,-55.703 7.791,-68.767 6.656,-71.036 4.375,-72.358 1.999,-72.362 1.023,-72.362 11.106,-39.959 0,0"
           style="fill:#231f20;fill-opacity:1;fill-rule:nonzero;stroke:none"
           id="path1035" />
      </g>
      <g
         id="g1037"
         transform="translate(654.334,644.0654)">
        <path
           d="m 0,0 c -0.616,-1.358 -2.873,-1.669 -5.047,-0.689 -2.179,0.981 -3.441,2.874 -2.829,4.234 0.605,1.359 2.871,1.664 5.041,0.688 C -0.657,3.256 0.61,1.361 0,0 M 8.882,-5.459 C 8.068,-2.624 7.211,-0.223 6.438,1.665 6.044,2.61 5.675,3.422 5.3,4.151 4.85,4.931 4.713,5.408 3.593,6.659 0.574,9.564 -2.402,9.602 -4.731,9.68 -9.967,9.6 -33.44,3.754 -36.999,3.784 c -1.318,-0.019 -2.221,0.179 -2.464,0.281 -5.978,2.212 -11.484,5.494 -16.826,9.313 -5.255,3.789 -10.475,6.161 -20.453,7.426 -2.817,0.375 -5.737,0.559 -8.726,0.551 -16.779,-0.047 -36.233,-4.453 -52.097,-18.683 -15.874,-14.204 -27.705,-36.703 -29.082,-68.202 -0.09,-1.854 -0.132,-3.676 -0.124,-5.464 0.003,-7.268 0.755,-13.907 2.084,-19.953 -5.942,-22.697 -20.448,-39.686 -39.524,-51.317 -19.088,-11.617 -42.708,-17.56 -65.651,-17.604 -19.811,-0.053 -39.066,4.298 -54.406,12.7 -58.32,39.197 -22.914,102.479 -25.471,100.07 -0.277,-0.266 -23.17,-13.487 -21.211,-48.95 0.011,-5.806 0.882,-11.987 2.905,-18.356 6.3,-19.837 20.375,-34.64 37.922,-44.207 17.58,-9.602 38.721,-14.247 60.29,-14.212 24.985,0.076 49.037,6.422 70.402,19.386 19.432,11.785 31.434,27.361 38.602,50.064 3.268,-7.986 7.653,-14.572 12.614,-19.778 10.563,-11.07 23.13,-16.106 32.934,-16.908 1.531,-0.12 3.024,-0.176 4.492,-0.176 h 0.198 c 13.396,0.029 23.696,5.394 30.286,12.469 6.655,7.125 9.859,15.576 10.572,22.713 0.216,2.311 0.324,4.565 0.317,6.759 -0.038,20.308 -13.122,36.374 -22.934,47.878 -16.222,19.033 -17.611,35.76 -19.963,36.649 0,0 -4.076,-22.494 14.256,-44.131 8.411,-11.871 15.649,-24.227 15.689,-40.425 0.003,-1.772 -0.076,-3.601 -0.258,-5.502 -0.367,-4.183 -2.644,-10.37 -7.11,-15.058 -4.506,-4.705 -10.905,-8.318 -21.08,-8.396 -1.11,-0.002 -2.264,0.044 -3.463,0.134 -6.234,0.443 -16.376,4.224 -24.536,12.907 -8.186,8.687 -18.151,22.168 -18.241,43.271 -0.002,1.573 0.031,3.19 0.107,4.834 1.346,28.629 14.861,47.27 28.044,59.173 13.184,11.885 29.728,16.966 43.459,16.985 2.445,0.008 4.781,-0.147 6.987,-0.44 7.577,-1.063 11.554,-3.446 16.286,-6.758 4.655,-3.283 9.924,-6.211 18.204,-9.288 2.387,-0.868 4.702,-1.083 7,-1.093 6.039,0.05 12.476,0.062 18.507,1.522 0.39,0.1 0.778,0.198 1.166,0.295 0.741,-5.226 5.123,-9.24 10.427,-9.227 1.532,0.004 2.982,0.351 4.295,0.958 2.198,-11.899 2.398,-31.144 -14.182,-44.564 -14.545,-11.77 -43.704,-6.169 -43.704,-6.169 2.837,-2.42 15.009,-14.538 36.451,-9.227 33.682,8.343 36.033,39.938 36.023,47.535 -0.029,7.94 -1.507,15.305 -3.132,20.972"
           style="fill:#231f20;fill-opacity:1;fill-rule:nonzero;stroke:none"
           id="path1039" />
      </g>
      <g
         id="g1041"
         transform="translate(635.4707,546.8198)">
        <path
           d="m 0,0 c -0.346,7.565 -2.104,15.157 -8.013,14.89 -3.523,-0.164 -7.487,-5.219 -10.114,-9.277 1.509,-1.087 2.503,-2.931 2.507,-5.026 0.006,-1.908 -0.813,-3.61 -2.094,-4.726 2.986,-3.809 7.412,-8.519 10.949,-8.36 C -0.857,-12.233 0.344,-7.565 0,0"
           style="fill:#47c2c9;fill-opacity:1;fill-rule:nonzero;stroke:none"
           id="path1043" />
      </g>
      <g
         id="g1045"
         transform="translate(608.5195,547.3833)">
        <path
           d="m 0,0 c -0.006,2.104 0.989,3.958 2.503,5.051 -4.044,4.262 -10.121,9.604 -15.009,9.379 -8.098,-0.367 -6.165,-7.16 -5.779,-15.637 0.386,-8.476 -0.926,-15.425 7.166,-15.055 4.947,0.225 10.588,6.227 14.226,10.86 C 1.27,-4.402 0.005,-2.363 0,0"
           style="fill:#47c2c9;fill-opacity:1;fill-rule:nonzero;stroke:none"
           id="path1047" />
      </g>
    </g>
  </g>
</svg>
